<svg id="Layer_2" data-name="Layer 2" xmlns="http://www.w3.org/2000/svg" viewBox="0 0 873.77 861.772" style="width: 100%; height: 100%;">
  <g id="Layer_2-2" data-name="Layer 2">
    <g>
      <g>
        <rect id="c_3_c" x="302.951" y="0" width="433.093" height="433.093" fill="#f4f4f4"></rect>
        <rect id="c_3_c-2" data-name="c_3_c" x="736.044" y="0" width="4.964" height="433.093" fill="#f4f4f4"></rect>
        <rect id="c_3_c-3" data-name="c_3_c" x="736.044" y="0" width="4.964" height="433.093" fill="#292a2e" opacity=".05"></rect>
        <polygon id="c_3_c-4" data-name="c_3_c" points="631.125 298.437 631.125 185.125 538.307 185.125 538.307 250.957 394.53 250.957 394.53 367.52 333.423 367.52 333.423 433.093 394.53 433.093 406.302 433.093 715.211 433.093 715.211 298.437 631.125 298.437" fill="#292a2e" opacity=".05"></polygon>
        <g id="c_3_wh">
          <rect id="c_3_wh-2" data-name="c_3_wh" x="550.221" y="197.428" width="67.592" height="12.303" fill="#fffffa" opacity=".34"></rect>
          <rect id="c_3_wh-3" data-name="c_3_wh" x="550.221" y="222.923" width="67.592" height="12.303" fill="#fffffa" opacity=".34"></rect>
          <rect id="c_3_wh-4" data-name="c_3_wh" x="550.221" y="248.418" width="67.592" height="12.303" fill="#fffffa" opacity=".34"></rect>
        </g>
        <g id="c_3_wh-5" data-name="c_3_wh">
          <rect id="c_3_wh-6" data-name="c_3_wh" x="690.767" y="310.379" width="12.458" height="12.303" fill="#fffffa" opacity=".34"></rect>
          <rect id="c_3_wh-7" data-name="c_3_wh" x="690.767" y="335.874" width="12.458" height="12.303" fill="#fffffa" opacity=".34"></rect>
          <rect id="c_3_wh-8" data-name="c_3_wh" x="690.767" y="361.368" width="12.458" height="12.303" fill="#fffffa" opacity=".34"></rect>
          <rect id="c_3_wh-9" data-name="c_3_wh" x="667.719" y="310.379" width="12.458" height="12.303" fill="#fffffa" opacity=".34"></rect>
          <rect id="c_3_wh-10" data-name="c_3_wh" x="667.719" y="335.874" width="12.458" height="12.303" fill="#fffffa" opacity=".34"></rect>
          <rect id="c_3_wh-11" data-name="c_3_wh" x="667.719" y="361.368" width="12.458" height="12.303" fill="#fffffa" opacity=".34"></rect>
          <rect id="c_3_wh-12" data-name="c_3_wh" x="645.295" y="310.379" width="12.458" height="12.303" fill="#fffffa" opacity=".34"></rect>
          <rect id="c_3_wh-13" data-name="c_3_wh" x="645.295" y="335.874" width="12.458" height="12.303" fill="#fffffa" opacity=".34"></rect>
          <rect id="c_3_wh-14" data-name="c_3_wh" x="645.295" y="361.368" width="12.458" height="12.303" fill="#fffffa" opacity=".34"></rect>
        </g>
        <polygon points="736.044 214.117 648.899 214.117 648.899 0 641.691 0 641.691 214.117 406.302 214.117 406.302 0 399.095 0 399.095 214.117 302.951 214.117 302.951 221.324 399.095 221.324 399.095 433.093 406.302 433.093 406.302 221.324 641.691 221.324 641.691 433.093 648.899 433.093 648.899 221.324 736.044 221.324 736.044 214.117" fill="#fff"></polygon>
        <rect id="c_3_c-5" data-name="c_3_c" x="285.698" y="432.571" width="467.599" height="14.403" fill="#f4f4f4"></rect>
        <rect id="c_3_c-6" data-name="c_3_c" x="285.698" y="432.571" width="467.599" height="14.403" fill="#292a2e" opacity=".1"></rect>
        <rect id="c_3_c-7" data-name="c_3_c" x="753.297" y="432.571" width="6.751" height="14.403" fill="#292a2e" opacity=".1"></rect>
        <rect id="c_3_c-8" data-name="c_3_c" x="753.297" y="432.571" width="6.751" height="14.403" fill="#292a2e" opacity=".1"></rect>
        <g>
          <rect x="302.951" y="7.731" width="438.057" height="10.709" fill="#fff"></rect>
          <rect x="302.951" y="27.733" width="438.057" height="10.709" fill="#fff"></rect>
          <rect x="302.951" y="47.734" width="438.057" height="10.709" fill="#fff"></rect>
          <rect x="302.951" y="67.736" width="438.057" height="10.709" fill="#fff"></rect>
          <rect x="302.951" y="87.738" width="438.057" height="10.709" fill="#fff"></rect>
        </g>
        <rect x="687.916" y="0" width="6.564" height="110.524" fill="#fff"></rect>
        <circle cx="691.755" cy="117.378" r="9.019" fill="#fff"></circle>
      </g>
      <polygon points="506.1 265.081 506.1 162.713 624.217 162.713 624.217 243.032 536.883 243.032 506.1 265.081" fill="#001C55"></polygon>
      <polygon points="506.1 265.081 506.1 162.713 624.217 162.713 624.217 243.032 536.883 243.032 506.1 265.081" fill="#001C55"></polygon>
      <g>
        <circle cx="532.873" cy="203.66" r="10.237" fill="#fff"></circle>
        <circle cx="565.158" cy="203.66" r="10.237" fill="#fff"></circle>
        <circle cx="597.443" cy="203.66" r="10.237" fill="#fff"></circle>
      </g>
      <circle cx="624.217" cy="162.713" r="14.961" fill="#0cbc8b"></circle>
      <g>
        <path d="m861.122,861.772H.702c-.388,0-.702-.314-.702-.702s.314-.702.702-.702h860.419c.388,0,.702.314.702.702s-.314.702-.702.702Z" fill="#292a2e"></path>
        <g fill="none" opacity=".65">
          <path d="m861.122,861.772H.702c-.388,0-.702-.314-.702-.702s.314-.702.702-.702h860.419c.388,0,.702.314.702.702s-.314.702-.702.702Z" fill="#292a2e"></path>
        </g>
      </g>
      <g>
        <polygon points="60.603 860.541 58.639 860.163 89.335 555.131 91.299 555.509 60.603 860.541" fill="#494949"></polygon>
        <polygon points="174.901 860.541 172.937 860.163 203.633 555.131 205.596 555.509 174.901 860.541" fill="#494949"></polygon>
        <g>
          <polygon points="427.549 860.541 429.513 860.163 398.818 555.131 396.854 555.509 427.549 860.541" fill="#494949"></polygon>
          <polygon points="313.252 860.541 315.215 860.163 284.52 555.131 282.556 555.509 313.252 860.541" fill="#494949"></polygon>
        </g>
        <rect x="279.522" y="420.42" width="2" height="135.496" transform="translate(-62.142 41.422) rotate(-7.605)" fill="#494949"></rect>
        <rect x="73.698" y="420.42" width="2" height="135.496" transform="translate(-63.953 14.181) rotate(-7.605)" fill="#494949"></rect>
        <g>
          <rect x="79.149" y="545.485" width="220.99" height="19.671" rx="9.835" ry="9.835" fill="#292a2e"></rect>
          <rect x="79.149" y="545.485" width="220.99" height="19.671" rx="9.835" ry="9.835" fill="#fff" opacity=".8"></rect>
          <path d="m290.304,566.156H88.984c-5.975,0-10.835-4.861-10.835-10.835s4.86-10.835,10.835-10.835h201.32c5.975,0,10.835,4.86,10.835,10.835s-4.861,10.835-10.835,10.835Zm-201.32-19.67c-4.872,0-8.835,3.963-8.835,8.835s3.963,8.835,8.835,8.835h201.32c4.872,0,8.835-3.963,8.835-8.835s-3.963-8.835-8.835-8.835H88.984Z" fill="#292a2e"></path>
        </g>
        <g>
          <rect x="189.644" y="545.485" width="220.99" height="19.671" rx="9.835" ry="9.835" fill="#fff"></rect>
          <path d="m400.799,566.156h-201.319c-5.975,0-10.835-4.861-10.835-10.835s4.861-10.835,10.835-10.835h201.319c5.975,0,10.836,4.86,10.836,10.835s-4.861,10.835-10.836,10.835Zm-201.319-19.67c-4.872,0-8.835,3.963-8.835,8.835s3.963,8.835,8.835,8.835h201.319c4.872,0,8.836-3.963,8.836-8.835s-3.964-8.835-8.836-8.835h-201.319Z" fill="#292a2e"></path>
        </g>
        <g>
          <path d="m261.515,421.016H66.268c-6.603,0-12.182-4.899-13.035-11.447l-12.915-99.18c-1.024-7.867,5.101-14.842,13.035-14.842h195.247c6.603,0,12.182,4.899,13.035,11.447l12.915,99.18c1.024,7.867-5.101,14.842-13.035,14.842Z" fill="#292a2e"></path>
          <path d="m261.515,421.016H66.268c-6.603,0-12.182-4.899-13.035-11.447l-12.915-99.18c-1.024-7.867,5.101-14.842,13.035-14.842h195.247c6.603,0,12.182,4.899,13.035,11.447l12.915,99.18c1.024,7.867-5.101,14.842-13.035,14.842Z" fill="#fff" opacity=".8"></path>
          <path d="m261.515,422.016H66.268c-7.082,0-13.112-5.296-14.026-12.318l-12.915-99.18c-.525-4.035.713-8.103,3.398-11.16s6.559-4.811,10.628-4.811h195.247c7.082,0,13.112,5.296,14.026,12.319l12.915,99.18c.525,4.035-.713,8.102-3.398,11.16s-6.559,4.811-10.628,4.811Zm-208.162-125.469c-3.494,0-6.82,1.506-9.125,4.131-2.306,2.625-3.369,6.118-2.917,9.582l12.915,99.18c.785,6.029,5.962,10.576,12.043,10.576h195.247c3.494,0,6.82-1.506,9.125-4.131,2.306-2.625,3.369-6.118,2.918-9.582l-12.915-99.18c-.785-6.03-5.962-10.577-12.043-10.577H53.353Z" fill="#292a2e"></path>
        </g>
        <g>
          <path d="m272.556,421.016H77.309c-6.603,0-12.182-4.899-13.035-11.447l-12.915-99.18c-1.024-7.867,5.101-14.842,13.035-14.842h195.247c6.603,0,12.182,4.899,13.035,11.447l12.915,99.18c1.024,7.867-5.101,14.842-13.035,14.842Z" fill="#fff"></path>
          <path d="m272.556,422.016H77.309c-7.082,0-13.112-5.296-14.026-12.318l-12.915-99.18c-.525-4.035.713-8.103,3.398-11.16s6.559-4.811,10.628-4.811h195.247c7.082,0,13.112,5.296,14.026,12.319l12.915,99.18c.525,4.035-.713,8.102-3.398,11.16s-6.559,4.811-10.628,4.811Zm-208.162-125.469c-3.494,0-6.82,1.505-9.125,4.131-2.306,2.625-3.369,6.118-2.918,9.583l12.915,99.18c.785,6.029,5.962,10.576,12.043,10.576h195.247c3.494,0,6.82-1.506,9.125-4.131,2.306-2.625,3.369-6.118,2.918-9.582l-12.915-99.18c-.785-6.03-5.962-10.577-12.043-10.577H64.394Z" fill="#292a2e"></path>
        </g>
      </g>
      <g>
        <path d="m550.283,805.524s5.362,27.794,31.385,29.343c26.023,1.549,20.38,22.28,20.38,22.28h-99.444v-49.684s47.68-1.938,47.68-1.938Z" fill="#001C55"></path>
        <path d="m361.095,787.975s-7.457,27.306,15.209,40.183c22.667,12.877,8.452,28.988,8.452,28.988l-89.232-43.896,21.931-44.582,43.639,19.307Z" fill="#001C55"></path>
        <g>
          <path id="sk" d="m273.4,222.911c-.2-.026-2.42,36.804-45.205,33.593-29.62-2.219-40.181-33.645-40.86-33.645,3.194-.679,7.14-1.709,8.709-2.062,5.211-1.174,11.716-5.474,13.22-14.532.866-5.22-.603-31.928-.151-37.21l45.467,10.148c-.635,11.155-5.082,37.017,10.503,41.594,2.593.757,5.386,1.453,8.319,2.114Z" fill="#ff9e85"></path>
          <path id="sh" d="m255.216,210.228c-.644-2.056-1.027-3.843-1.368-7.057-.609-5.747-.285-11.03.297-16.413-9.185-1.223-18.003-5.086-25.129-11.009-.844,3.118-5.487,16.742-4.202,19.705,2.43,5.601,13.849,14.774,30.401,14.774Z" fill="#0c0c0c" opacity=".22"></path>
          <g>
            <path d="m282.253,139.913s13.047-9.696,16.431-32.213c2.62-17.434-13.564-6.248-13.564-6.248,0,0,1.764-12.572-7.411-11.392-9.175,1.18-14.411,14.362-14.411,14.362" fill="#0c0c0c"></path>
            <path d="m230.305,91.179s-45.53,4.537-29.545,66.306l4.023.3,8.167.609" fill="#0c0c0c"></path>
            <path d="m246.598,202.239c-17.925-1.743-39.308-13.236-39.436-37.586l-.115-21.971c-.128-24.35,12.558-44.157,35.485-44.277h0c22.927-.12,40.167,19.53,40.295,43.88l.051,9.727c.01,2.002-.181,5.596-.803,9.977-1.241,8.741-3.163,22.03-9.17,30.985-5.67,8.454-14.855,10.379-26.307,9.266Z" fill="#ff9e85"></path>
            <g>
              <g>
                <circle id="e1_eye" cx="270.417" cy="153.797" r="2.5" transform="translate(79.502 399.42) rotate(-81.772)" fill="#0a0a0a"></circle>
                <g id="e1_n">
                  <path d="m254.645,171.159c-.501-.072-.875-.513-.855-1.029.022-.552.486-.982,1.039-.96l5.321.21-1.712-10.936c-.085-.546.288-1.057.834-1.142.545-.085,1.057.287,1.143.833l1.9,12.138c.046.296-.043.596-.242.82s-.487.346-.786.334l-6.536-.258c-.035-.001-.07-.005-.104-.01Z" fill="#0a0a0a"></path>
                </g>
                <g id="e1_m">
                  <path d="m251.861,182.198c-8.971-1.297-10.857-7.104-10.94-7.376-.161-.528.135-1.087.663-1.249.525-.162,1.082.133,1.247.657.079.247,2.048,5.967,12.091,6.215.564.012.989.473.976,1.024-.014.552-.472.988-1.024.975-1.084-.027-2.086-.112-3.012-.246Z" fill="#0a0a0a"></path>
                </g>
                <path id="e1_eb" d="m250.074,141.697c.131.771-2.71,1.486-6.628,1.951s-7.436.7-7.558-.267c-.154-1.221,3.056-3.58,6.973-4.045,3.917-.465,7.006,1.147,7.212,2.36Z" fill="#0a0a0a"></path>
                <circle id="e1_eye-2" data-name="e1_eye" cx="245.377" cy="151.787" r="2.5" transform="translate(60.036 372.915) rotate(-81.772)" fill="#0a0a0a"></circle>
              </g>
              <path id="e1_eb-2" data-name="e1_eb" d="m280.051,146.561c-.193.758-3.08.259-6.849-.905-3.769-1.164-7.08-2.377-6.8-3.31.355-1.179,3.856-2.175,7.625-1.011,3.769,1.164,6.328,4.034,6.024,5.227Z" fill="#0a0a0a"></path>
            </g>
            <path d="m208.625,172.063c-6.967.037-12.655-7.388-12.691-14.355-.037-6.967,5.592-10.839,12.559-10.876l3.615,4.65,2.508,20.55-5.99.031Z" fill="#ff9e85"></path>
            <path d="m213.519,160.714c1.161.113,2.196-.728,2.315-1.888.765-7.498,3.984-32.647,12.879-34.389,6.968-1.365,23.767,8.63,39.417,5.767,6.847-1.253,13.325.488,13.961,3.722.252,1.281,4.649-17.063-5.954-31.09-8.442-11.168-36.315-14.511-49.034-10.965-35.218,9.819-20.058,56.469-20.058,56.469l1.269,10.204c.122.985.912,1.754,1.9,1.85l3.305.321Z" fill="#0c0c0c"></path>
            <ellipse cx="261.321" cy="100.932" rx="9.539" ry="14.04" transform="translate(-14.772 53.513) rotate(-11.373)" fill="#0c0c0c"></ellipse>
          </g>
        </g>
        <g>
          <path d="m305.827,780.263l75.249-237.39h-136.399c-27.398,0-38.822-23.235-38.822-50.633s26.935-51.416,54.334-51.416h184.089c16.711,0,35.449,10.22,44.621,24.19,9.171,13.969,6.693,35.618.048,50.951l-120.498,292.667" fill="#262626"></path>
          <path d="m305.827,780.263l75.249-237.39h-136.399c-27.398,0-38.822-23.235-38.822-50.633s26.935-51.416,54.334-51.416h184.089c16.711,0,35.449,10.22,44.621,24.19,9.171,13.969,6.693,35.618.048,50.951l-120.498,292.667" fill="#0a0a0a" opacity=".8"></path>
          <path d="m496.884,831.335l-125.819-288.462-165.209-.011c-38.711-3.035-56.44-24.25-55.877-51.642.556-27.045,14.25-53.758,41.174-53.758h222.669c19.92.409,35.592,22.423,42.982,40.925l104.602,335.288" fill="#262626"></path>
          <path d="m138.709,437.793s-7.337,47.846,4.293,74.447c14.519,33.21,68.947,30.622,68.947,30.622l-3.067-105.4-70.173.331Z" fill="#262626"></path>
        </g>
        <path d="m461.537,436.852l-116.701-24.182c-9.883-2.048-18.035-9.001-21.616-18.438l-45.901-120.953c-5.787-15.248,1.883-32.299,17.131-38.085,15.25-5.787,32.299,1.884,38.085,17.131l40.152,105.804,100.834,20.894s-9.961,58.249-11.983,57.83Z" fill="#001C55"></path>
        <path d="m326.559,303.994c-1.348,15.833-10.903,114.61-12.199,134.112h-175.575c-1.009-17.589-5.538-94.5-9.364-128.895-3.652-32.821-8.77-47.757-4.564-57.957,7.418-17.989,31.03-26.023,47.019-28.188,9.764-1.322,24.449-2.269,24.449-2.269,0,0,1.243,25.153,30.891,26.553,40.36,1.904,37.664-26.553,37.864-26.553,6.538,0,42.128,4.755,51.027,10.555,12.569,8.192,16.284,19.357,16.431,29.614.169,11.81-4.449,25.071-5.98,43.028Z" fill="#001C55"></path>
        <path d="m319.656,384.705c-.014,0-.028,0-.042-.002-.275-.022-.479-.264-.457-.54l4.558-54.754c.022-.275.255-.49.54-.457.275.022.479.264.457.54l-4.558,54.754c-.021.261-.24.458-.498.458Z" fill="#0c0c0c"></path>
        <g>
          <path d="m347.889,427.252l38.525-118.423c1.389-4.269,5.368-7.159,9.857-7.159h156.952c7.043,0,12.036,6.874,9.857,13.572l-38.525,118.423c-1.389,4.269-5.368,7.159-9.857,7.159h-156.952c-7.043,0-12.036-6.874-9.857-13.572Z" fill="#292a2e"></path>
          <path d="m347.889,427.252l38.525-118.423c1.389-4.269,5.368-7.159,9.857-7.159h156.952c7.043,0,12.036,6.874,9.857,13.572l-38.525,118.423c-1.389,4.269-5.368,7.159-9.857,7.159h-156.952c-7.043,0-12.036-6.874-9.857-13.572Z" fill="#fff" opacity=".2"></path>
          <rect x="269.511" y="431.221" width="114.544" height="9.602" rx="4.74" ry="4.74" fill="#292a2e"></rect>
          <rect x="269.511" y="431.221" width="114.544" height="9.602" rx="4.74" ry="4.74" fill="#fff" opacity=".2"></rect>
          <circle cx="455.484" cy="377.024" r="16.461" fill="#fff"></circle>
        </g>
        <g>
          <rect x="286.418" y="281.924" width="41.735" height="51.184" fill="#fff"></rect>
          <path d="m286.418,324.607c-9.424,0-17.091-7.667-17.091-17.091s7.667-17.091,17.091-17.091,17.091,7.667,17.091,17.091-7.667,17.091-17.091,17.091Zm0-27.182c-5.564,0-10.091,4.527-10.091,10.091s4.527,10.091,10.091,10.091,10.091-4.527,10.091-10.091-4.527-10.091-10.091-10.091Z" fill="#fff"></path>
        </g>
        <g id="ha">
          <path d="m288.824,315.101c-.807-2.098-2.977-3.213-5.066-2.809.019-.048.03-.099.031-.151l1.402-.626c1.993-.889,3.219-3.052,2.721-5.177-.67-2.859-3.703-4.268-6.245-3.133l-3.306,1.475c-.004-.013-.002-.026-.007-.039-.011-.028-.031-.049-.048-.073,1.638-1.238,2.277-3.476,1.404-5.431-.917-2.481-4.167-2.679-6.316-1.72l-8.632,3.488,2.606-2.643c1.644-1.807,1.765-4.659.046-6.396-1.833-1.852-4.819-1.77-6.55.133l-30.706,33.529,10.498,10.112c6.67,6.425,16.571,8.16,25.028,4.387l18.712-8.389c1.993-.889,3.219-3.052,2.721-5.177-.481-2.052-2.178-3.35-4.038-3.504.012-.071.013-.145-.015-.217-.052-.137-.169-.224-.302-.256l3.455-1.542c2.232-.996,3.486-3.559,2.608-5.84Z" fill="#ff9e85"></path>
          <path id="sh-2" data-name="sh" d="m272.118,307.516c-.169,0-.329-.102-.395-.269-.086-.218.022-.464.239-.55l5.84-2.296c.217-.084.464.022.55.239.086.218-.022.464-.239.55l-5.84,2.296c-.051.02-.104.029-.155.029Z" fill="#0c0c0c" opacity=".2"></path>
          <path id="sh-3" data-name="sh" d="m275.378,315.775c-.168,0-.327-.1-.393-.266-.087-.217.018-.464.235-.552l7.987-3.214c.216-.087.464.017.552.235.087.217-.018.464-.235.552l-7.987,3.214c-.052.021-.105.031-.158.031Z" fill="#0c0c0c" opacity=".2"></path>
          <path id="sh-4" data-name="sh" d="m278.858,324.741c-.171,0-.333-.105-.397-.275-.082-.219.029-.464.248-.546l3.808-1.429c.219-.082.463.029.546.248.082.219-.029.464-.248.546l-3.808,1.429c-.049.018-.099.027-.149.027Z" fill="#0c0c0c" opacity=".2"></path>
        </g>
        <g>
          <path d="m297.705,249.368c-.363,0-.714-.198-.891-.544-2.277-4.439-5.11-9.965-4.791-15.758.254-4.607,2.414-8.697,4.502-12.653,1.274-2.414,2.592-4.91,3.435-7.465,2.34-7.093,1.036-15.229-3.404-21.235-.328-.444-.234-1.07.21-1.398.443-.33,1.069-.235,1.398.21,4.819,6.519,6.235,15.352,3.695,23.051-.896,2.714-2.253,5.285-3.566,7.771-2.08,3.939-4.044,7.659-4.274,11.83-.29,5.251,2.294,10.29,4.573,14.735.252.491.058,1.094-.434,1.346-.146.075-.302.11-.455.11Z" fill="#fff"></path>
          <path d="m313.761,264.976c-.353,0-.694-.187-.876-.517-.267-.484-.091-1.092.393-1.358,3.707-2.044,4.121-7.733,2.38-12.052-.798-1.98-1.929-3.891-3.023-5.738-1.414-2.387-2.875-4.855-3.719-7.599-1.99-6.463-.068-13.973,4.781-18.686.396-.384,1.029-.376,1.414.021.385.396.375,1.029-.021,1.414-4.324,4.203-6.038,10.899-4.264,16.664.775,2.517,2.113,4.776,3.529,7.168,1.132,1.912,2.303,3.888,3.157,6.009,2.038,5.057,1.585,11.875-3.269,14.551-.153.084-.319.125-.482.125Z" fill="#fff"></path>
        </g>
        <path d="m265.366,352.143l-147.254,60.94c-3.618,1.481-7.415,2.201-11.18,2.202-7.525,0-14.925-2.876-20.54-8.309-8.424-8.151-11.229-20.513-7.148-31.502l43.919-119.954c5.678-15.288,21.674-24.08,36.963-18.401,15.288,5.677,23.079,22.674,17.401,37.962l-20.033,56.775,86.304-33.271" fill="#001C55"></path>
        <path d="m265.002,352.688c-.156,0-.303-.093-.365-.246l-21.425-53.202-86.011,33.194c-.145.058-.31.021-.421-.089-.11-.11-.145-.276-.088-.421l13.297-34.136c.079-.203.308-.303.51-.224.203.079.303.307.224.51l-12.973,33.304,85.54-33.013c.201-.078.426.021.507.22l21.57,53.562c.081.202-.017.431-.218.513-.048.019-.098.028-.147.028Z" fill="#0c0c0c"></path>
        <path d="m130.188,342.995c-.157,0-.305-.095-.366-.25-.08-.202.02-.431.222-.511l26.94-10.6c.201-.079.431.02.511.222.08.202-.02.431-.222.511l-26.94,10.6c-.047.018-.096.027-.144.027Z" fill="#0c0c0c"></path>
        <path d="m136.457,405.968c-.154,0-.301-.092-.364-.243-.083-.201.012-.431.213-.514l128.545-53.28c.2-.082.431.012.514.213.083.201-.012.431-.213.514l-128.545,53.28c-.049.02-.1.03-.151.03Z" fill="#0c0c0c"></path>
      </g>
      <g>
        <path d="m786.711,730.631c-.256,0-.512-.098-.707-.293-1.409-1.409-3.706-27.259-9.892-104.223-2.531-31.492-4.922-61.238-6.667-79.315-.125-1.291-.625-1.441-.79-1.491-2.388-.721-9.652,5.007-13.707,10.022-.347.429-.977.497-1.407.149-.429-.348-.496-.977-.149-1.407,2.682-3.316,11.422-12.009,15.838-10.68.891.268,1.996,1.042,2.206,3.214,1.746,18.093,4.137,47.847,6.669,79.347,3.759,46.77,8.018,99.756,9.417,103.093.282.391.247.939-.105,1.291-.195.195-.451.293-.707.293Z" fill="#494949"></path>
        <ellipse cx="749.115" cy="557.817" rx="38.507" ry="28.398" transform="translate(-184.279 591.098) rotate(-38.715)" fill="#0cbc8b"></ellipse>
        <ellipse cx="749.115" cy="557.817" rx="38.507" ry="28.398" transform="translate(-184.279 591.098) rotate(-38.715)" fill="#fff" opacity=".2"></ellipse>
        <path d="m723.721,585.01c-.112,0-.225-.038-.319-.115-.212-.176-.242-.491-.065-.704l47.291-57.029c.176-.211.491-.242.704-.065.212.176.242.491.065.704l-47.291,57.029c-.099.119-.241.181-.385.181Z" fill="#fff"></path>
        <path d="m797.026,718.405c-.109,0-.22-.018-.329-.056-.521-.181-.797-.751-.616-1.273l17.764-51.087c1.066-3.065,3.586-5.351,6.741-6.112,3.156-.763,6.44.122,8.788,2.364l9.391,8.971c.399.381.414,1.015.032,1.414-.382.399-1.015.413-1.414.032l-9.391-8.971c-1.853-1.77-4.445-2.469-6.937-1.867-2.49.601-4.479,2.405-5.321,4.825l-17.764,51.087c-.144.413-.53.672-.944.672Z" fill="#494949"></path>
        <ellipse cx="841.105" cy="669.299" rx="28.398" ry="38.507" transform="translate(-233.795 666.536) rotate(-38.363)" fill="#0cbc8b"></ellipse>
        <path d="m778.641,727.373c-.452,0-.862-.309-.972-.768l-29.811-124.645c-.422-1.767-1.729-3.079-3.494-3.51-1.765-.429-3.53.133-4.718,1.506l-9.189,10.619c-.361.417-.994.463-1.411.102-.417-.361-.463-.993-.102-1.411l9.189-10.619c1.665-1.924,4.233-2.744,6.705-2.141,2.471.603,4.374,2.514,4.965,4.988l29.811,124.645c.128.537-.203,1.077-.74,1.205-.078.019-.156.027-.233.027Z" fill="#494949"></path>
        <ellipse cx="739.66" cy="633.426" rx="38.507" ry="28.398" transform="translate(-10.536 1254.338) rotate(-80.189)" fill="#0cbc8b"></ellipse>
        <path d="m786.713,730.631c-.041,0-.082-.002-.124-.007-.548-.068-.938-.567-.871-1.115l19.036-154.558c.43-3.486,2.78-6.296,6.135-7.335,3.354-1.039,6.883-.049,9.207,2.583l21.758,24.643c.366.414.326,1.046-.088,1.412-.414.366-1.046.326-1.411-.087l-21.758-24.643c-1.797-2.035-4.522-2.799-7.116-1.997-2.593.803-4.41,2.975-4.741,5.669l-19.036,154.558c-.062.507-.494.878-.991.878Z" fill="#494949"></path>
        <ellipse cx="830.474" cy="589.898" rx="28.398" ry="38.507" transform="translate(-87.692 1031.076) rotate(-61.051)" fill="#0cbc8b"></ellipse>
        <ellipse cx="841.105" cy="669.299" rx="28.398" ry="38.507" transform="translate(-233.795 666.536) rotate(-38.363)" fill="#fff" opacity=".2"></ellipse>
        <ellipse cx="739.66" cy="633.426" rx="38.507" ry="28.398" transform="translate(-10.536 1254.338) rotate(-80.189)" fill="#fff" opacity=".5"></ellipse>
        <ellipse cx="830.474" cy="589.898" rx="28.398" ry="38.507" transform="translate(-87.692 1031.076) rotate(-61.051)" fill="#fff" opacity=".5"></ellipse>
        <polygon points="811.059 861.772 762.363 861.772 754.294 705.968 819.129 705.968 811.059 861.772" fill="#292a2e"></polygon>
        <polygon points="811.059 861.772 762.363 861.772 754.294 705.968 819.129 705.968 811.059 861.772" fill="#fff" opacity=".3"></polygon>
        <path d="m865.005,699.992c-.148,0-.294-.065-.393-.189l-47.799-60.386c-.171-.217-.135-.531.082-.703.218-.172.532-.134.703.082l47.799,60.386c.171.217.135.531-.082.703-.092.073-.202.108-.31.108Z" fill="#fff"></path>
        <path d="m860.991,613.375c-.102,0-.206-.031-.294-.096l-61.167-44.663c-.223-.163-.272-.476-.109-.699.163-.223.476-.272.699-.109l61.167,44.663c.223.163.272.476.109.699-.098.134-.25.205-.404.205Z" fill="#fff"></path>
        <path d="m730.616,670.723c-.043,0-.086-.005-.129-.017-.267-.071-.425-.345-.354-.612l19.472-72.953c.071-.267.35-.424.612-.354.267.071.425.345.354.612l-19.472,72.953c-.06.224-.262.371-.482.371Z" fill="#fff"></path>
      </g>
    </g>
  </g>
</svg>